<svg width="25" height="24" viewBox="0 0 25 24" fill="none" xmlns="http://www.w3.org/2000/svg">
<path d="M12.077 4.99972C13.4116 4.99972 14.6916 4.47321 15.6355 3.53571C16.5789 2.59821 17.1093 1.32589 17.1093 0H7.04504C7.04504 0.65625 7.17498 1.29911 7.42048 1.89425C7.67106 2.50279 8.04228 3.06194 8.51889 3.53571C9.4628 4.47321 10.7424 4.99972 12.077 4.99972Z" fill="#FAFAFC"/>
<path d="M0 17.0006V7.00028C1.3346 7.00028 2.61459 7.52679 3.55807 8.46512C4.50198 9.40262 5.03193 10.6741 5.03193 12C5.03193 13.3267 4.50198 14.5982 3.55807 15.5357C2.61459 16.4732 1.3346 17.0006 0 17.0006Z" fill="#FAFAFC"/>
<path d="M12.077 7.00028C9.29815 7.00028 7.04504 9.23856 7.04504 12C7.04504 14.7614 9.29815 17.0006 12.077 17.0006C14.8562 17.0006 17.1093 14.7614 17.1093 12C17.1093 9.23856 14.8562 7.00028 12.077 7.00028Z" fill="#FAFAFC"/>
<path d="M19.122 12C19.122 13.3267 19.6524 14.5982 20.5959 15.5357C21.5398 16.4732 22.8193 17.0006 24.1539 17.0006V7.00028C22.8193 7.00028 21.5398 7.52679 20.5959 8.46512C19.6524 9.40262 19.122 10.6741 19.122 12Z" fill="#FAFAFC"/>
<path d="M24.1539 0V4.99972C22.8193 4.99972 21.5398 4.47321 20.5959 3.53571C19.6524 2.59821 19.122 1.32589 19.122 0H24.1539Z" fill="#FAFAFC"/>
<path d="M0 4.99972C1.3346 4.99972 2.61459 4.47321 3.55807 3.53571C3.83109 3.26451 4.06939 2.96568 4.27003 2.64593C4.35003 2.51869 4.42368 2.38811 4.4914 2.25419C4.5532 2.13198 4.61034 2.00809 4.66198 1.8817C4.9041 1.2899 5.03193 0.651228 5.03193 0H0V4.99972Z" fill="#FAFAFC"/>
<path d="M8.51889 20.4651C9.4628 19.5268 10.7424 19.0003 12.077 19.0003C13.4116 19.0003 14.6916 19.5268 15.6355 20.4651C16.5789 21.4026 17.1093 22.6741 17.1093 24H7.04504C7.04504 22.6741 7.5754 21.4026 8.51889 20.4651Z" fill="#FAFAFC"/>
<path d="M19.122 24H24.1539V19.0003C22.8193 19.0003 21.5398 19.5268 20.5959 20.4651C19.6524 21.4026 19.122 22.6741 19.122 24Z" fill="#FAFAFC"/>
<path d="M0 24V19.0003C1.3346 19.0003 2.61459 19.5268 3.55807 20.4651C4.50198 21.4026 5.03193 22.6741 5.03193 24H0Z" fill="#FAFAFC"/>
</svg>
