<svg width="32" height="32" viewBox="0 0 32 32" fill="none" xmlns="http://www.w3.org/2000/svg">
<g clip-path="url(#clip0_1841_68367)">
<path d="M15.9999 22.5487C15.9912 22.3263 15.8973 22.1157 15.7378 21.9605C15.5783 21.8052 15.3653 21.7171 15.1428 21.7144H13.4628C13.387 21.7144 13.3143 21.6843 13.2607 21.6307C13.2072 21.5771 13.1771 21.5044 13.1771 21.4287V12.2858C13.1769 12.23 13.193 12.1754 13.2235 12.1287C13.2539 12.082 13.2974 12.0452 13.3485 12.0229C13.3994 11.9805 13.4631 11.9563 13.5294 11.9543C13.5957 11.9522 13.6607 11.9723 13.7142 12.0115L15.1199 13.4629C15.2806 13.6235 15.4985 13.7136 15.7256 13.7136C15.9528 13.7136 16.1706 13.6235 16.3314 13.4629C16.4919 13.3022 16.582 13.0844 16.582 12.8572C16.582 12.6301 16.4919 12.4122 16.3314 12.2515L12.9028 8.82294C12.7421 8.66243 12.5242 8.57227 12.2971 8.57227C12.0699 8.57227 11.8521 8.66243 11.6914 8.82294L8.26278 12.2515C8.16454 12.3252 8.08327 12.4191 8.02449 12.527C7.96571 12.6348 7.93078 12.754 7.92208 12.8765C7.91337 12.999 7.93109 13.1219 7.97403 13.2369C8.01697 13.352 8.08414 13.4565 8.17097 13.5433C8.25781 13.6302 8.36229 13.6973 8.47734 13.7403C8.59239 13.7832 8.71533 13.8009 8.83783 13.7922C8.96032 13.7835 9.07952 13.7486 9.18734 13.6898C9.29516 13.631 9.3891 13.5498 9.46278 13.4515L10.9828 11.9887C11.023 11.9501 11.0737 11.9241 11.1285 11.9139C11.1833 11.9038 11.24 11.9099 11.2914 11.9315C11.3361 11.9586 11.3725 11.9974 11.3967 12.0438C11.4209 12.0901 11.4319 12.1422 11.4285 12.1944V21.4058C11.4315 21.9353 11.6432 22.4423 12.0176 22.8167C12.392 23.1911 12.899 23.4028 13.4285 23.4058H15.1428C15.3692 23.4028 15.5855 23.3116 15.7456 23.1515C15.9057 22.9914 15.997 22.7751 15.9999 22.5487Z" fill="#FAFAFC"/>
<path d="M15.9998 9.45138C16.0086 9.67378 16.1024 9.88433 16.2619 10.0396C16.4214 10.1948 16.6344 10.2829 16.857 10.2857H18.537C18.6127 10.2857 18.6854 10.3158 18.739 10.3694C18.7926 10.4229 18.8227 10.4956 18.8227 10.5714V19.7714C18.8229 19.8271 18.8068 19.8817 18.7763 19.9285C18.7458 19.9752 18.7024 20.0119 18.6513 20.0342C18.594 20.0689 18.5268 20.0832 18.4605 20.0749C18.3941 20.0666 18.3325 20.0362 18.2855 19.9885L16.8798 18.5371C16.7191 18.3766 16.5013 18.2864 16.2741 18.2864C16.047 18.2864 15.8291 18.3766 15.6684 18.5371C15.5079 18.6978 15.4177 18.9157 15.4177 19.1428C15.4177 19.37 15.5079 19.5878 15.6684 19.7485L19.097 23.1771C19.2577 23.3376 19.4755 23.4278 19.7027 23.4278C19.9298 23.4278 20.1477 23.3376 20.3084 23.1771L23.737 19.7485C23.8884 19.586 23.9708 19.3711 23.9669 19.1491C23.963 18.927 23.873 18.7151 23.716 18.5581C23.5589 18.4011 23.3471 18.3111 23.125 18.3072C22.9029 18.3033 22.688 18.3857 22.5255 18.5371L21.0055 20C20.9653 20.0386 20.9146 20.0645 20.8598 20.0747C20.805 20.0848 20.7484 20.0787 20.697 20.0571C20.6459 20.0348 20.6024 19.998 20.5719 19.9513C20.5415 19.9046 20.5253 19.85 20.5255 19.7942V10.5942C20.5226 10.0667 20.3125 9.56143 19.9405 9.18732C19.5685 8.81322 19.0645 8.60022 18.537 8.59424H16.857C16.6306 8.5972 16.4143 8.68845 16.2542 8.84856C16.094 9.00867 16.0028 9.22497 15.9998 9.45138Z" fill="#FAFAFC"/>
</g>
<defs>
<clipPath id="clip0_1841_68367">
<rect width="16" height="16" fill="white" transform="translate(8 8)"/>
</clipPath>
</defs>
</svg>
