<svg viewBox="0 0 800 150" xmlns="http://www.w3.org/2000/svg" preserveAspectRatio="none">
  <defs>
    <linearGradient id="blueGlow" x1="0%" y1="0%" x2="100%" y2="0%">
      <stop offset="0%" stop-color="#00bfff" stop-opacity="0.2"/>
      <stop offset="100%" stop-color="#00bfff" stop-opacity="0.6"/>
    </linearGradient>
    <filter id="glow">
      <feGaussianBlur stdDeviation="3" result="coloredBlur"/>
      <feMerge>
        <feMergeNode in="coloredBlur"/>
        <feMergeNode in="SourceGraphic"/>
      </feMerge>
    </filter>
  </defs>

  <!-- 10 randomized wave paths -->
  <path d="M0,15 C80,5 160,25 240,20 C320,10 400,30 480,20 C560,5 640,25 720,15 C800,10 800,10 800,10" stroke="url(#blueGlow)" stroke-width="1" fill="none" filter="url(#glow)" />
  <path d="M0,35 C90,20 180,50 270,40 C360,25 450,55 540,35 C630,15 720,45 800,30" stroke="url(#blueGlow)" stroke-width="1.2" fill="none" filter="url(#glow)" />
  <path d="M0,55 C100,45 200,65 300,60 C400,50 500,70 600,55 C700,40 800,65 800,60" stroke="url(#blueGlow)" stroke-width="1.1" fill="none" filter="url(#glow)" />
  <path d="M0,25 C70,15 140,35 210,30 C280,20 350,40 420,25 C490,15 560,35 630,20 C700,10 800,30 800,25" stroke="url(#blueGlow)" stroke-width="0.8" fill="none" filter="url(#glow)" />
  <path d="M0,65 C85,50 170,75 255,70 C340,60 425,80 510,65 C595,55 680,75 765,60 C800,55 800,55 800,55" stroke="url(#blueGlow)" stroke-width="1.3" fill="none" filter="url(#glow)" />
  <path d="M0,90 C100,80 200,100 300,95 C400,85 500,105 600,90 C700,75 800,105 800,90" stroke="url(#blueGlow)" stroke-width="1.1" fill="none" filter="url(#glow)" />
  <path d="M0,75 C95,60 190,85 285,80 C380,70 475,95 570,75 C665,60 760,85 800,75" stroke="url(#blueGlow)" stroke-width="0.9" fill="none" filter="url(#glow)" />
  <path d="M0,110 C120,100 240,120 360,110 C480,95 600,125 720,100 C800,95 800,95 800,95" stroke="url(#blueGlow)" stroke-width="1.2" fill="none" filter="url(#glow)" />
  <path d="M0,130 C100,120 200,140 300,135 C400,125 500,145 600,130 C700,115 800,145 800,130" stroke="url(#blueGlow)" stroke-width="1" fill="none" filter="url(#glow)" />
  <path d="M0,145 C90,135 180,150 270,145 C360,130 450,150 540,140 C630,125 720,150 800,140" stroke="url(#blueGlow)" stroke-width="0.9" fill="none" filter="url(#glow)" />
</svg>
