<svg width="1334" height="1334" viewBox="0 0 1334 1334" fill="none" xmlns="http://www.w3.org/2000/svg">
<circle cx="666.5" cy="666.5" r="473.5" fill="white"/>
<path d="M636.667 0.799955C632.267 1.06662 620.933 1.86662 611.333 2.66662C470.4 14.2666 338.4 69.7333 230.667 162.8C210 180.667 173.733 217.2 157.467 236.667C67.3333 344.533 15.8667 468.933 2.53333 610.667C-1.06667 648.4 0.533332 711.333 6.13333 754.4C22.6667 882.4 77.2 1003.6 162.8 1102.67C180.667 1123.33 217.2 1159.6 236.667 1175.87C344.533 1266 468.933 1317.47 610.667 1330.8C648.4 1334.4 711.333 1332.8 754.4 1327.2C882.4 1310.67 1003.6 1256.13 1102.67 1170.53C1123.33 1152.67 1159.6 1116.13 1175.87 1096.67C1266 988.8 1317.47 864.4 1330.8 722.667C1334.4 684.933 1332.8 622 1327.2 578.933C1310.67 450.933 1256.13 329.733 1170.53 230.667C1152.67 210 1116.13 173.733 1096.67 157.467C990.533 68.9333 866.133 16.5333 729.733 3.33329C709.333 1.33329 652.933 -0.266712 636.667 0.799955ZM706 201.333C913.867 218.933 1085.6 373.467 1125.2 578.667C1132.4 615.867 1135.2 665.333 1132.13 703.333C1115.33 912.933 960.933 1085.47 754.667 1125.2C717.467 1132.4 668 1135.2 630 1132.13C420.4 1115.33 247.867 960.933 208.133 754.667C200.933 717.467 198.133 668 201.2 630C215.2 456 323.733 305.467 484.8 236.667C530.267 217.2 574.133 206.533 632 200.933C642.933 199.867 691.333 200.133 706 201.333Z" fill="#0052FF"/>
<path d="M541.333 517.2C530.933 519.333 521.867 527.2 518.533 536.933C517.067 541.067 516.667 565.333 516.667 668V794L519.6 799.467C523.2 806.267 530.267 812.533 536.933 814.8C541.067 816.267 565.333 816.667 668 816.667H794L799.467 813.733C806.267 810.133 812.533 803.067 814.8 796.4C816.267 792.267 816.667 768 816.667 665.333V539.333L813.733 534C810.133 527.2 804.8 522.133 798 519.067C792.933 516.8 785.067 516.667 669.333 516.533C601.467 516.4 543.867 516.667 541.333 517.2Z" fill="#0052FF"/>
</svg>
