<svg width="28" height="28" viewBox="0 0 28 28" fill="none" xmlns="http://www.w3.org/2000/svg">
<path d="M28 14C28 21.732 21.732 28 14 28C6.26801 28 0 21.732 0 14C0 6.26801 6.26801 0 14 0C21.732 0 28 6.26801 28 14Z" fill="#1A4955"/>
<path d="M16.4135 13.9997C16.4135 15.3328 15.3328 16.4135 13.9997 16.4135C12.6666 16.4135 11.5859 15.3328 11.5859 13.9997C11.5859 12.6666 12.6666 11.5859 13.9997 11.5859C15.3328 11.5859 16.4135 12.6666 16.4135 13.9997Z" fill="#FF60BD"/>
<path d="M16.4135 8.20676C16.4135 9.53986 15.3328 10.6206 13.9997 10.6206C12.6666 10.6206 11.5859 9.53986 11.5859 8.20676C11.5859 6.87366 12.6666 5.79297 13.9997 5.79297C15.3328 5.79297 16.4135 6.87366 16.4135 8.20676Z" fill="#FF60BD"/>
<path d="M16.4135 19.7937C16.4135 21.1268 15.3328 22.2075 13.9997 22.2075C12.6666 22.2075 11.5859 21.1268 11.5859 19.7937C11.5859 18.4606 12.6666 17.3799 13.9997 17.3799C15.3328 17.3799 16.4135 18.4606 16.4135 19.7937Z" fill="#55B6CC"/>
<path d="M8.20676 11.5865C9.53986 11.5865 10.6206 12.6672 10.6206 14.0003C10.6206 15.3334 9.53986 16.4141 8.20676 16.4141C6.87366 16.4141 5.79297 15.3334 5.79297 14.0003C5.79297 12.6672 6.87366 11.5865 8.20676 11.5865Z" fill="#FF60BD"/>
<path d="M8.20676 17.3794C9.53986 17.3794 10.6206 18.4601 10.6206 19.7932C10.6206 21.1263 9.53986 22.207 8.20676 22.207C6.87366 22.207 5.79297 21.1263 5.79297 19.7932C5.79297 18.4601 6.87366 17.3794 8.20676 17.3794Z" fill="#55B6CC"/>
<path d="M19.7927 11.5865C21.1258 11.5865 22.2065 12.6672 22.2065 14.0003C22.2065 15.3334 21.1258 16.4141 19.7927 16.4141C18.4596 16.4141 17.3789 15.3334 17.3789 14.0003C17.3789 12.6672 18.4596 11.5865 19.7927 11.5865Z" fill="#55B6CC"/>
<path d="M19.7927 17.3794C21.1258 17.3794 22.2065 18.4601 22.2065 19.7932C22.2065 21.1263 21.1258 22.207 19.7927 22.207C18.4596 22.207 17.3789 21.1263 17.3789 19.7932C17.3789 18.4601 18.4596 17.3794 19.7927 17.3794Z" fill="#55B6CC"/>
<path d="M19.7927 5.79253C21.1258 5.79253 22.2065 6.87322 22.2065 8.20632C22.2065 9.53942 21.1258 10.6201 19.7927 10.6201C18.4596 10.6201 17.3789 9.53943 17.3789 8.20632C17.3789 6.87322 18.4596 5.79253 19.7927 5.79253Z" fill="#FF60BD"/>
<path fill-rule="evenodd" clip-rule="evenodd" d="M18.8277 8.9307H15.207V7.48242H18.8277V8.9307Z" fill="#FF60BD"/>
<path fill-rule="evenodd" clip-rule="evenodd" d="M12.65 14.7237H9.0293V13.2754H12.65V14.7237Z" fill="#FF60BD"/>
<path d="M8.20676 5.79253C9.53986 5.79253 10.6206 6.87322 10.6206 8.20632C10.6206 9.53942 9.53986 10.6201 8.20676 10.6201C6.87366 10.6201 5.79297 9.53943 5.79297 8.20632C5.79297 6.87322 6.87366 5.79253 8.20676 5.79253Z" fill="#55B6CC"/>
</svg>
