<svg width="24" height="24" viewBox="0 0 24 24" fill="none" xmlns="http://www.w3.org/2000/svg">
<path fill-rule="evenodd" clip-rule="evenodd" d="M24 12C24 18.6274 18.6274 24 12 24C5.37258 24 0 18.6274 0 12C0 5.37258 5.37258 0 12 0C18.6274 0 24 5.37258 24 12ZM17.1421 21.3848L21.3848 17.1421L19.3669 15.1243C18.5576 17.0303 17.0303 18.5576 15.1243 19.3669L17.1421 21.3848ZM9.43294 19.5793C7.45322 18.909 5.82115 17.4848 4.87848 15.6484L3.24264 17.2843L7.48528 21.5269L9.43294 19.5793ZM4.63306 8.8757C5.44239 6.96975 6.96975 5.44239 8.8757 4.63306L7.24264 3L3 7.24264L4.63306 8.8757ZM15.6484 4.87848L17.3848 3.14214L21.6274 7.38478L19.5793 9.43294C18.909 7.45322 17.4848 5.82115 15.6484 4.87848Z" fill="#060710"/>
<path d="M11.9995 6L11.9189 6.27346V14.208L11.9995 14.2884L15.6825 12.1113L11.9995 6Z" fill="#B7B7B7"/>
<path d="M11.9991 6L8.31592 12.1113L11.9991 14.2884V10.4371V6Z" fill="white"/>
<path d="M11.9995 14.9857L11.9541 15.041V17.8674L11.9995 17.9999L15.6848 12.8097L11.9995 14.9857Z" fill="#939090"/>
<path d="M11.9991 17.9999V14.9857L8.31592 12.8097L11.9991 17.9999Z" fill="white"/>
<path d="M11.999 14.2884L15.6821 12.1113L11.999 10.4371V14.2884Z" fill="#939090"/>
<path d="M8.31592 12.1113L11.9991 14.2884V10.4371L8.31592 12.1113Z" fill="#B1B1B1"/>
</svg>
