<?xml version="1.0" encoding="utf-8"?>
<!-- Generator: Adobe Illustrator 28.0.0, SVG Export Plug-In . SVG Version: 6.00 Build 0)  -->
<svg version="1.1" id="Calque_1" xmlns="http://www.w3.org/2000/svg" xmlns:xlink="http://www.w3.org/1999/xlink" x="0px" y="0px"
	 viewBox="0 0 300 300" style="enable-background:new 0 0 300 300;" xml:space="preserve">
<style type="text/css">
	.st0{fill:#2470FF;}
	.st1{fill:#DAE2EA;}
	.st2{fill:#FFFFFF;}
</style>
<g>
	<circle class="st0" cx="150" cy="150" r="150"/>
	<g>
		<path class="st1" d="M137.4,172.5c-3.7-8-12.6-14.8-23.1-20.3L96.6,162c-5.8,3.3-9.5,9.2-9.5,15.5v44.7c0,2.8,2.3,3.9,3.1,4.2
			c0.7,0.3,3.2,1,5.3-1l33.8-32.5c2.9-2.8,5.7-5.7,7.7-9.1c1-1.6,1.4-2.5,1.4-2.5c0.3-0.7,0.6-1.4,0.8-2.1
			C139.1,176.9,138.4,174.7,137.4,172.5z"/>
		<path class="st1" d="M203.4,162l-17.7-9.9c-10.5,5.6-19.4,12.4-23.1,20.3c-1,2.3-1.7,4.5-1.9,6.8c0.2,0.7,0.5,1.3,0.8,2
			c0,0,0.6,1.3,2,3.4c1.8,2.7,4,5.1,6.4,7.4l34.6,33.2c2.2,2,4.6,1.3,5.3,1c0.7-0.3,3.1-1.4,3.1-4.2v-44.7
			C212.9,171.2,209.3,165.4,203.4,162z"/>
		<path class="st2" d="M232.3,78.2V125c0,5.9-3.9,11.1-9.5,12.7c-19,5.5-52.2,17.3-60.2,34.7c-1,2.3-1.7,4.5-1.9,6.9
			c-5.3-9.7-7.8-20.9-6.6-32.2c1.6-16,10-30.6,23.3-39.9l47.2-33.1c0.8-0.6,1.8-0.9,2.8-0.9c0.8,0,1.6,0.2,2.3,0.6
			C231.3,74.7,232.3,76.3,232.3,78.2z"/>
		<path class="st2" d="M67.7,78.2V125c0,5.9,3.9,11.1,9.5,12.7c19,5.5,52.2,17.3,60.2,34.7c1,2.3,1.7,4.5,1.9,6.9
			c5.3-9.7,7.8-20.9,6.6-32.2c-1.6-16-10-30.6-23.3-39.9L75.4,74.2c-0.8-0.6-1.8-0.9-2.8-0.9c-0.8,0-1.6,0.2-2.3,0.6
			C68.7,74.7,67.7,76.3,67.7,78.2z"/>
	</g>
</g>
</svg>
