<svg width="25" height="24" viewBox="0 0 25 24" fill="none" xmlns="http://www.w3.org/2000/svg">
<mask id="mask0_3677_199132" style="mask-type:alpha" maskUnits="userSpaceOnUse" x="0" y="0" width="25" height="24">
<circle cx="12.5" cy="12" r="12" fill="url(#paint0_linear_3677_199132)"/>
</mask>
<g mask="url(#mask0_3677_199132)">
<rect x="-22.3" y="-18" width="108.642" height="57.1034" fill="#1F1F2D"/>
<path d="M12.5 7.79988C13.2956 7.79988 14.0587 7.48398 14.6215 6.92148C15.184 6.35898 15.5002 5.59558 15.5002 4.80005H9.50007C9.50007 5.1938 9.57754 5.57951 9.72391 5.9366C9.8733 6.30172 10.0946 6.63721 10.3787 6.92148C10.9415 7.48398 11.7043 7.79988 12.5 7.79988Z" fill="#F26057"/>
<path d="M5.29999 15.0004V9.00022C6.09564 9.00022 6.85874 9.31612 7.42123 9.87912C7.98396 10.4416 8.2999 11.2045 8.2999 12C8.2999 12.7961 7.98396 13.559 7.42123 14.1215C6.85874 14.684 6.09564 15.0004 5.29999 15.0004Z" fill="#F26057"/>
<path d="M12.5 9.00022C10.8433 9.00022 9.50007 10.3432 9.50007 12C9.50007 13.6569 10.8433 15.0004 12.5 15.0004C14.1569 15.0004 15.5002 13.6569 15.5002 12C15.5002 10.3432 14.1569 9.00022 12.5 9.00022Z" fill="#F26057"/>
<path d="M16.7001 12C16.7001 12.7961 17.0163 13.559 17.5787 14.1215C18.1415 14.684 18.9043 15.0004 19.7 15.0004V9.00022C18.9043 9.00022 18.1415 9.31612 17.5787 9.87912C17.0163 10.4416 16.7001 11.2045 16.7001 12Z" fill="#F26057"/>
<path d="M19.7 4.80005V7.79988C18.9043 7.79988 18.1415 7.48398 17.5787 6.92148C17.0163 6.35898 16.7001 5.59558 16.7001 4.80005H19.7Z" fill="#F26057"/>
<path d="M5.29999 7.79988C6.09564 7.79988 6.85874 7.48398 7.42123 6.92148C7.58399 6.75875 7.72606 6.57946 7.84568 6.3876C7.89337 6.31127 7.93728 6.23292 7.97766 6.15256C8.0145 6.07923 8.04856 6.0049 8.07935 5.92907C8.22369 5.57399 8.2999 5.19079 8.2999 4.80005H5.29999V7.79988Z" fill="#F26057"/>
<path d="M10.3787 17.0791C10.9415 16.5161 11.7043 16.2002 12.5 16.2002C13.2956 16.2002 14.0587 16.5161 14.6215 17.0791C15.184 17.6416 15.5002 18.4045 15.5002 19.2H9.50007C9.50007 18.4045 9.81626 17.6416 10.3787 17.0791Z" fill="#F26057"/>
<path d="M16.7001 19.2H19.7V16.2002C18.9043 16.2002 18.1415 16.5161 17.5787 17.0791C17.0163 17.6416 16.7001 18.4045 16.7001 19.2Z" fill="#F26057"/>
<path d="M5.29999 19.2V16.2002C6.09564 16.2002 6.85874 16.5161 7.42123 17.0791C7.98396 17.6416 8.2999 18.4045 8.2999 19.2H5.29999Z" fill="#F26057"/>
</g>
<defs>
<linearGradient id="paint0_linear_3677_199132" x1="12.5" y1="0" x2="12.5" y2="24" gradientUnits="userSpaceOnUse">
<stop stop-color="#60509B"/>
<stop offset="0.9999" stop-color="#D3426F"/>
<stop offset="1" stop-color="#D3426F"/>
</linearGradient>
</defs>
</svg>
