<svg xmlns="http://www.w3.org/2000/svg" xmlns:xlink="http://www.w3.org/1999/xlink" id="Layer_2" viewBox="0 0 1027.38 808.06"><defs><style>.cls-1{fill:none;}.cls-2{fill:url(#New_Gradient_Swatch_1);}.cls-2,.cls-3{fill-rule:evenodd;}.cls-4{clip-path:url(#clippath);}.cls-3{fill:url(#New_Gradient_Swatch_1-2);}.cls-5{fill:#fff;}.cls-6{clip-path:url(#clippath-1);}</style><linearGradient id="New_Gradient_Swatch_1" x1="321.39" y1="54.07" x2="725.49" y2="753.98" gradientTransform="matrix(1, 0, 0, 1, 0, 0)" gradientUnits="userSpaceOnUse"><stop offset="0" stop-color="#fdd19e"></stop><stop offset=".29" stop-color="#ef5a5f"></stop><stop offset=".87" stop-color="#6ac4c8"></stop></linearGradient><linearGradient id="New_Gradient_Swatch_1-2" x1="202.04" y1="589.59" x2="844.84" y2="218.47" xlink:href="#New_Gradient_Swatch_1"></linearGradient><clipPath id="clippath"><rect class="cls-1" y="114.1" width="1027.38" height="577.9"></rect></clipPath><clipPath id="clippath-1"><rect class="cls-1" y="114.1" width="1027.38" height="577.9"></rect></clipPath></defs><g id="Layer_3"><path class="cls-2" d="M523.44,0c223.14,0,404.03,180.89,404.03,404.03s-180.89,404.03-404.03,404.03S119.41,627.17,119.41,404.03,300.3,0,523.44,0Z"></path><path class="cls-3" d="M523.44,32.97c204.93,0,371.06,166.13,371.06,371.06s-166.13,371.06-371.06,371.06S152.38,608.96,152.38,404.03,318.51,32.97,523.44,32.97Z"></path><g class="cls-4"><g class="cls-6"><path class="cls-5" d="M323.81,398.88c-13.06,0-25.09-5.84-36.09-16.84-2.41,4.12-3.09,8.25-3.09,12.72,0,2.75,.69,8.25,3.09,14.43l-.69,1.03c-20.62-1.03-32.65-6.87-44.68-16.15-1.37,8.59-1.37,12.37-1.37,22.68,0,43.99,39.52,86.26,91.76,86.26s91.42-41.93,91.42-90.39h5.5c3.44,9.28,4.81,19.25,3.44,32.65,57.39,23.03,72.86,59.8,72.86,95.2h34.71c2.06-21.65-.69-41.24-5.16-56.71-4.47-15.46-12.72-35.4-28.18-50.86l4.47-4.81c20.62,16.5,24.06,22.68,41.93,46.05,14.78,3.09,27.15,11.68,48.11,11.68,13.4,0,27.49-2.06,50.18-12.72-6.53-11.34-11-21.65-12.03-40.55h6.87c13.75,56.02,68.05,65.3,91.42,69.42,20.62,3.44,27.84,18.9,27.84,34.02,0,1.37,0,2.41-.34,4.47h19.59c.69-5.16,1.03-9.97,1.03-15.12,0-11-.69-22-5.84-31.27-18.56-31.27-34.02-42.96-34.02-67.02s18.21-41.24,19.25-42.27c-10.65-1.72-14.43-12.03-21.65-23.03-15.81-24.4-42.27-28.18-56.02-28.18s-21.31,1.72-34.71,1.72c-61.52,0-92.45-69.76-167.37-69.76-47.43,0-80.08,34.37-84.89,78.7l-1.03,.34c-6.19-6.87-16.84-16.15-29.21-20.28,0,1.72,.34,3.78,.34,5.84,0,32.99-8.94,68.73-47.43,68.73m323.05,141.59h31.27c10.65-9.97,17.53-25.09,19.25-33.68-19.25-8.25-27.84-14.43-38.49-24.74l-6.19,4.81c3.44,6.19,5.84,13.06,5.84,22.34,0,7.56,0,12.03-11.68,31.27m-187.99,0h28.18c0-37.8-11-51.21-26.81-66.33l-4.81,3.78c6.53,14.43,7.22,24.4,7.22,34.02,0,12.37-1.37,20.62-3.78,28.52"></path></g></g></g></svg>