<?xml version="1.0" standalone="no"?>
<!DOCTYPE svg PUBLIC "-//W3C//DTD SVG 20010904//EN"
 "http://www.w3.org/TR/2001/REC-SVG-20010904/DTD/svg10.dtd">
<svg version="1.0" xmlns="http://www.w3.org/2000/svg"
 width="250.000000pt" height="250.000000pt" viewBox="0 0 250.000000 250.000000"
 preserveAspectRatio="xMidYMid meet">

<g transform="translate(0.000000,250.000000) scale(0.100000,-0.100000)"
fill="#000000" stroke="none">
<path d="M1096 2485 c-252 -36 -486 -141 -659 -295 -35 -32 -54 -56 -50 -63 4
-7 8 -16 8 -22 1 -5 7 -9 14 -7 8 2 -9 -23 -36 -55 -202 -234 -297 -489 -297
-793 0 -321 107 -587 331 -821 174 -182 397 -298 670 -349 54 -10 91 -19 82
-19 -12 -1 -15 -8 -12 -25 4 -20 12 -24 56 -29 27 -4 96 -2 151 4 181 18 308
54 458 131 243 124 435 319 553 562 198 407 166 867 -88 1246 -64 96 -231 263
-327 327 -256 171 -571 248 -854 208z m-659 -478 c-3 -8 4 -34 15 -58 10 -24
19 -46 19 -49 -2 -11 22 -76 32 -87 5 -7 6 -13 3 -13 -4 0 -1 -10 6 -22 7 -13
11 -26 10 -30 -1 -5 3 -8 9 -8 6 0 9 -6 6 -13 -3 -7 2 -29 11 -48 17 -39 16
-34 26 -76 4 -18 12 -33 17 -33 6 0 7 -4 4 -10 -3 -5 -1 -10 5 -10 7 0 10 -7
7 -15 -4 -8 -2 -17 4 -20 5 -4 7 -11 4 -16 -4 -5 -1 -9 4 -9 6 0 12 10 13 23
1 12 5 -45 8 -128 l5 -149 53 -30 c29 -17 49 -32 43 -34 -12 -4 7 -51 29 -70
8 -8 -7 -2 -33 13 -26 14 -58 25 -70 23 -22 -3 -22 -4 -24 -238 -2 -129 0
-240 5 -246 4 -7 88 -62 187 -124 99 -62 185 -117 190 -123 7 -7 6 -8 -2 -3
-7 4 -13 2 -13 -3 0 -6 5 -11 11 -11 5 0 8 -3 5 -8 -4 -7 12 -57 44 -137 6
-16 10 -30 8 -31 -2 0 3 -8 11 -17 7 -10 10 -17 7 -17 -4 0 -2 -9 4 -20 10
-18 8 -20 -18 -20 -15 0 -66 10 -112 21 -453 115 -784 494 -840 964 -37 306
72 648 273 863 33 35 42 40 34 19z m406 -1184 c7 -11 -50 -54 -121 -92 l-22
-12 0 152 0 151 68 -93 c37 -52 71 -100 75 -106z m-16 151 c0 -19 -2 -18 -21
11 -16 25 -16 25 2 14 10 -6 19 -18 19 -25z m83 -246 c21 -32 21 -32 1 -9 -23
26 -27 21 -9 -12 7 -12 13 -31 15 -41 2 -11 8 -25 14 -33 6 -7 8 -13 3 -13 -5
0 -4 -4 3 -8 6 -4 14 -20 17 -36 3 -16 13 -38 23 -49 15 -17 10 -16 -27 6 -25
15 -84 51 -132 79 l-88 52 43 26 c50 31 111 68 114 69 1 1 11 -14 23 -31z"/>
</g>
</svg>
